<svg width="102" height="623" viewBox="0 0 102 623" fill="none" xmlns="http://www.w3.org/2000/svg">
<path d="M1.54675 417.461C1.54675 390.139 23.7796 367.906 51.1023 367.906C78.425 367.906 100.658 390.139 100.658 417.461C100.658 444.784 78.425 467.017 51.1023 467.017C23.7796 467.017 1.54675 444.784 1.54675 417.461ZM97.0877 417.461C97.0877 392.106 76.4577 371.476 51.1023 371.476C25.7469 371.476 5.11697 392.106 5.11697 417.461C5.11697 442.817 25.7469 463.447 51.1023 463.447C76.4577 463.447 97.0877 442.817 97.0877 417.461Z" fill="#11F8A5"/>
<path d="M1.54409 538.607C1.54409 537.619 2.34558 536.827 3.32399 536.827C4.3024 536.827 5.10389 537.629 5.10389 538.607C5.10389 563.963 25.7338 584.593 51.0892 584.593C76.4447 584.593 97.0746 563.963 97.0746 538.607C97.0746 537.619 97.8761 536.827 98.8545 536.827C99.8329 536.827 100.634 537.629 100.634 538.607C100.634 565.93 78.4015 588.163 51.0788 588.163C23.7561 588.163 1.52332 565.93 1.52332 538.607H1.54409Z" fill="#11F8A5"/>
<path d="M99.1433 416.264H77.4413V420.542H99.1433V416.264Z" fill="#11F8A5"/>
<path d="M24.4207 416.264H2.71863V420.542H24.4207V416.264Z" fill="#11F8A5"/>
<path d="M53.4106 445.242H49.1327V466.944H53.4106V445.242Z" fill="#11F8A5"/>
<path d="M53.4106 369.863H49.1327V391.565H53.4106V369.863Z" fill="#11F8A5"/>
<path d="M76.7858 391.252C61.9431 376.41 37.8678 376.41 23.0147 391.252C8.17201 406.095 8.17201 430.17 23.0147 445.023C37.8574 459.866 61.9326 459.866 76.7858 445.023C91.6285 430.181 91.6285 406.105 76.7858 391.252ZM57.2487 394.469C61.5787 395.811 65.4611 398.32 68.4796 401.734L69.0625 402.39L68.2091 402.587C65.9504 403.118 63.5356 403.555 61.0375 403.878L60.5899 403.94L60.465 403.503C60.0487 402.077 59.5595 400.703 58.9974 399.433C58.3 397.841 57.5194 396.446 56.6659 395.27L55.7291 393.99L57.2487 394.458V394.469ZM39.8767 416.951L39.8976 416.41C40.0017 413.121 40.3659 409.977 40.9905 407.084L41.0842 406.626L41.5525 406.667C47.0274 407.146 52.8771 407.125 58.3209 406.615L58.7892 406.574L58.8933 407.032C59.5283 409.957 59.8925 413.11 59.9862 416.41V416.951H39.8871H39.8767ZM59.9862 419.366V419.907C59.8717 423.207 59.5074 426.361 58.8725 429.285L58.7684 429.743L58.3 429.702C52.8563 429.192 47.0067 429.181 41.5317 429.65L41.0633 429.691L40.9696 429.233C40.3451 426.34 39.9808 423.207 39.8767 419.907L39.8559 419.366H59.9654H59.9862ZM49.9315 393.563C52.9604 393.563 56.0413 397.404 57.9669 403.597L58.1647 404.221L57.509 404.273C54.9484 404.492 52.3047 404.607 49.6505 404.607C47.1836 404.607 44.7271 404.513 42.3331 404.315L41.6774 404.263L41.8752 403.628C43.8008 397.414 46.8922 393.553 49.9315 393.553V393.563ZM31.2792 401.848C34.3185 398.382 38.2322 395.832 42.6142 394.479L44.1443 394.011L43.1971 395.301C42.3436 396.467 41.5525 397.872 40.8656 399.454C40.3139 400.703 39.8143 402.098 39.3771 403.597L39.2522 404.024L38.8047 403.972C36.2858 403.659 33.8501 403.243 31.5602 402.712L30.6963 402.514L31.2792 401.848ZM25.2006 416.389C25.492 412.33 26.7931 408.374 28.9685 404.929L29.1767 404.607L29.5514 404.7C32.216 405.377 35.0887 405.918 38.1072 406.303L38.6694 406.376L38.5548 406.938C37.9303 409.957 37.5764 413.152 37.4828 416.441V416.951H25.1693L25.211 416.389H25.2006ZM29.1767 431.711L28.9685 431.388C26.7931 427.953 25.492 423.987 25.2006 419.928L25.1589 419.366H37.4619V419.876C37.566 423.165 37.9303 426.371 38.5445 429.379L38.6589 429.941L38.0968 430.014C35.0887 430.399 32.2056 430.94 29.541 431.617L29.1663 431.711H29.1767ZM42.6142 441.849C38.2322 440.496 34.3185 437.945 31.2792 434.479L30.6963 433.813L31.5602 433.615C33.8501 433.095 36.2858 432.668 38.8047 432.356L39.2522 432.304L39.3771 432.731C39.8143 434.23 40.3139 435.624 40.8656 436.873C41.5629 438.466 42.3436 439.861 43.1971 441.037L44.1443 442.327L42.6142 441.859V441.849ZM49.9315 442.754C46.8922 442.754 43.8008 438.893 41.8752 432.679L41.6774 432.044L42.3331 431.992C47.2981 431.596 52.5857 431.607 57.509 432.033L58.1647 432.085L57.9669 432.71C56.0309 438.893 52.95 442.744 49.9315 442.744V442.754ZM68.4796 434.583C65.4611 437.997 61.5683 440.506 57.2487 441.849L55.7291 442.317L56.6659 441.037C57.5194 439.871 58.3 438.466 58.9974 436.873C59.549 435.593 60.0487 434.23 60.465 432.804L60.5899 432.366L61.0375 432.429C63.5356 432.751 65.9504 433.189 68.2091 433.719L69.0625 433.928L68.4796 434.583ZM74.652 419.928C74.3606 424.029 73.0387 428.036 70.8112 431.513L70.603 431.836L70.2283 431.742C67.595 431.045 64.7325 430.493 61.7349 430.087L61.1728 430.014L61.2873 429.462C61.9118 426.444 62.2761 423.228 62.3698 419.886V419.376H74.6832L74.6416 419.938L74.652 419.928ZM62.3906 416.951V416.441C62.2865 413.1 61.9222 409.873 61.2977 406.865L61.1832 406.314L61.7453 406.241C64.743 405.835 67.5949 405.283 70.2387 404.586L70.6135 404.492L70.8216 404.815C73.049 408.291 74.3813 412.288 74.6624 416.4L74.704 416.962H62.401L62.3906 416.951Z" fill="#11F8A5"/>
<path d="M1.48441 539.357V419.762C1.48441 418.773 2.2859 417.982 3.26431 417.982C4.24272 417.982 5.04421 418.783 5.04421 419.762V539.357C5.04421 540.346 4.24272 541.137 3.26431 541.137C2.2859 541.137 1.48441 540.335 1.48441 539.357Z" fill="#11F8A5"/>
<path d="M97.035 539.627V420.032C97.035 419.043 97.8365 418.252 98.8149 418.252C99.7933 418.252 100.595 419.054 100.595 420.032V539.627C100.595 540.616 99.7933 541.407 98.8149 541.407C97.8365 541.407 97.035 540.606 97.035 539.627Z" fill="#11F8A5"/>
<path d="M14.8281 330.452C-4.66161 310.962 -4.66161 279.253 14.8281 259.764C34.3178 240.274 66.0265 240.274 85.5162 259.764C105.006 279.253 105.006 310.962 85.5162 330.452C66.0265 349.942 34.3178 349.942 14.8281 330.452ZM83.1606 262.119C64.9696 243.928 35.3748 243.928 17.1885 262.119C-1.00256 280.31 -1.00256 309.905 17.1885 328.091C35.3795 346.282 64.9743 346.282 83.1606 328.091C101.352 309.9 101.352 280.306 83.1606 262.119Z" fill="white"/>
<path d="M83.7001 284.505C83.5247 284.33 83.3826 284.107 83.302 283.86C81.572 278.742 78.7471 274.206 74.9079 270.366C71.0735 266.532 66.5328 263.707 61.4139 261.972C60.7361 261.74 60.2811 261.11 60.2811 260.394V248.246C60.2811 247.734 60.5181 247.251 60.921 246.933C61.3286 246.616 61.8547 246.507 62.3476 246.63C71.0972 248.82 79.1073 253.36 85.5059 259.764C91.9045 266.167 96.4452 274.172 98.635 282.922C98.7582 283.42 98.6444 283.946 98.3316 284.353C98.014 284.761 97.5306 284.993 97.0187 284.993H84.8708C84.4158 284.993 83.9987 284.808 83.6906 284.5L83.7001 284.505ZM77.2635 268.011C81.1785 271.926 84.1314 276.514 86.0557 281.661H94.8432C92.6345 274.305 88.6199 267.584 83.155 262.119C77.6901 256.654 70.9692 252.64 63.6179 250.436V259.223C68.7652 261.143 73.3533 264.096 77.2683 268.016L77.2635 268.011Z" fill="white"/>
<path d="M14.8269 330.452C8.42831 324.053 3.88291 316.043 1.69316 307.294C1.56992 306.796 1.68368 306.27 1.99651 305.867C2.31407 305.459 2.7975 305.227 3.30939 305.227H15.4573C16.173 305.227 16.8081 305.682 17.0356 306.36C18.7656 311.479 21.5905 316.015 25.4296 319.854C29.2641 323.688 33.8048 326.513 38.9237 328.248C39.6015 328.475 40.0564 329.11 40.0564 329.826V341.974C40.0564 342.486 39.8194 342.969 39.4166 343.287C39.0089 343.605 38.4828 343.714 37.9852 343.59C29.2356 341.401 21.2303 336.86 14.8269 330.461V330.452ZM5.49442 308.554C7.70313 315.91 11.7177 322.631 17.1826 328.096C22.6475 333.561 29.3684 337.576 36.7244 339.784V330.997C31.5771 329.077 26.989 326.124 23.074 322.209C19.159 318.294 16.2062 313.706 14.2818 308.559H5.49442V308.554Z" fill="white"/>
<path d="M60.7771 343.145C60.4643 342.832 60.2889 342.41 60.2889 341.965V329.817C60.2889 329.101 60.744 328.466 61.4217 328.238C66.5406 326.508 71.0765 323.684 74.9157 319.844C78.7549 316.005 81.575 311.469 83.3097 306.35C83.5372 305.673 84.1724 305.218 84.8881 305.218H97.036C97.5479 305.218 98.0313 305.455 98.3489 305.857C98.6665 306.26 98.7755 306.791 98.6522 307.284C96.4578 316.034 91.9171 324.039 85.5185 330.442C79.1198 336.846 71.1097 341.386 62.3602 343.576C61.8625 343.699 61.3364 343.586 60.9335 343.273C60.8814 343.225 60.8293 343.183 60.7819 343.135L60.7771 343.145ZM63.621 330.992V339.78C70.977 337.571 77.6979 333.556 83.1628 328.091C88.6277 322.627 92.6375 315.906 94.851 308.55H86.0635C84.1439 313.697 81.1911 318.28 77.2713 322.2C73.3563 326.115 68.7683 329.073 63.621 330.992Z" fill="white"/>
<path d="M2.12995 284.505C2.08255 284.458 2.03517 284.406 1.99725 284.353C1.67969 283.951 1.57067 283.42 1.6939 282.922C3.88365 274.173 8.42431 266.162 14.8277 259.764C21.231 253.365 29.2364 248.82 37.9859 246.63C38.4836 246.507 39.0097 246.621 39.4126 246.933C39.8154 247.251 40.0525 247.734 40.0525 248.246V260.394C40.0525 261.11 39.5975 261.745 38.9197 261.972C33.8008 263.702 29.2648 266.527 25.4256 270.367C21.5912 274.201 18.7664 278.742 17.0316 283.861C16.8041 284.538 16.169 284.993 15.4533 284.993H3.30542C2.85988 284.993 2.43328 284.818 2.1252 284.51L2.12995 284.505ZM36.7204 250.436C29.3644 252.645 22.6434 256.659 17.1786 262.124C11.7137 267.589 7.70387 274.31 5.49042 281.666H14.2778C16.1974 276.519 19.1503 271.935 23.07 268.016C26.985 264.101 31.5731 261.148 36.7204 259.223V250.436Z" fill="white"/>
<path d="M77.2675 268.011C62.3279 253.071 38.0131 253.066 23.0735 268.011C8.12921 282.955 8.13395 307.265 23.0735 322.205C38.0131 337.144 62.3231 337.149 77.2675 322.205C92.2118 307.26 92.2071 282.95 77.2675 268.011Z" fill="white"/>
<path d="M63.9942 308.785L36.4666 308.968C35.307 308.975 34.3731 309.922 34.3808 311.081L34.3873 312.062C34.395 313.222 35.3413 314.156 36.5009 314.148L64.0286 313.966C65.1882 313.958 66.122 313.012 66.1144 311.852L66.1078 310.871C66.1002 309.711 65.1538 308.778 63.9942 308.785Z" fill="#191D0A"/>
<path d="M40.2171 292.169C39.9185 292.169 39.6151 292.103 39.3402 291.97L37.1931 290.932C36.2594 290.477 35.8328 289.373 36.2214 288.41L37.2073 285.955C37.5107 285.206 38.2264 284.718 39.0321 284.713C39.3781 284.713 39.7194 284.799 40.0227 284.974L42.5822 286.434C43.0609 286.704 43.4069 287.173 43.5301 287.714C43.6534 288.254 43.5443 288.823 43.2315 289.278L41.8286 291.311C41.4636 291.842 40.8569 292.164 40.2123 292.164L40.2171 292.169Z" fill="#191D0A"/>
<path d="M60.0319 292.036C59.3873 292.036 58.7759 291.728 58.4062 291.202L57.0175 289.245C56.6952 288.794 56.5814 288.226 56.6952 287.685C56.8089 287.145 57.1502 286.671 57.6289 286.391L60.2689 284.841C60.5675 284.666 60.9088 284.571 61.2548 284.567C62.0605 284.562 62.7857 285.041 63.0985 285.785L64.0939 288.169C64.492 289.126 64.0797 290.24 63.1554 290.704L60.9088 291.828C60.6386 291.961 60.3353 292.036 60.0367 292.036H60.0319Z" fill="#191D0A"/>
<path d="M38.0545 307.128C36.8459 307.137 35.7605 306.379 35.3481 305.241L30.7554 292.6C30.4615 292.742 30.1486 292.851 29.8311 292.932C29.4566 293.027 29.0775 293.074 28.6935 293.074C28.4708 293.074 28.2527 293.065 28.0395 293.036C25.6459 292.733 23.8306 290.681 23.8164 288.263C23.7974 285.59 25.9587 283.401 28.6319 283.382C31.3051 283.363 33.4949 285.524 33.5091 288.197C33.5091 288.813 33.4048 289.406 33.1868 289.96C33.0683 290.264 32.9214 290.553 32.7508 290.828L41.486 295.055L48.1691 285.372C47.8894 285.254 47.6192 285.107 47.3633 284.931C46.8798 284.604 46.458 284.197 46.1167 283.718C45.5385 282.903 45.2257 281.941 45.2209 280.945C45.202 278.272 47.3633 276.082 50.0365 276.063C50.155 276.063 50.2782 276.063 50.3967 276.073C52.7903 276.234 54.7241 278.154 54.8995 280.547C54.98 281.68 54.6815 282.765 54.0369 283.69C53.6956 284.173 53.2785 284.585 52.7997 284.912C52.5485 285.088 52.2784 285.235 51.9988 285.353L58.8002 294.937L67.3934 290.638C67.2322 290.33 67.1043 290.008 67.0095 289.671C66.8957 289.264 66.8341 288.837 66.8341 288.406C66.8341 288.211 66.8435 288.017 66.8625 287.827C67.1374 285.391 69.1944 283.543 71.6449 283.528C74.3181 283.51 76.5078 285.671 76.5221 288.344C76.541 290.894 74.5598 293.036 72.0146 293.212L71.7112 293.221C71.2183 293.221 70.7349 293.155 70.2657 293.013C69.9623 292.918 69.6684 292.799 69.3935 292.648L65.0804 305.042C64.687 306.184 63.6063 306.952 62.3977 306.962L38.0545 307.123V307.128Z" fill="#191D0A"/>
<path d="M50.6153 217.407C37.9167 217.407 25.2286 212.578 15.559 202.908C-3.76983 183.579 -3.76983 152.135 15.559 132.806C24.9268 123.438 37.3755 118.286 50.6153 118.286C63.8551 118.286 76.3038 123.438 85.6716 132.806C105 152.135 105 183.579 85.6716 202.908C76.0123 212.567 63.3138 217.407 50.6153 217.407ZM18.1612 200.306C36.0536 218.198 65.1665 218.198 83.059 200.306C100.951 182.413 100.951 153.3 83.059 135.408C74.3886 126.738 62.8662 121.97 50.6049 121.97C38.3435 121.97 26.8211 126.748 18.1507 135.408C0.2583 153.3 0.2583 182.413 18.1507 200.306H18.1612Z" fill="#DA7DB5"/>
<path d="M52.4498 157.422L43.2694 170.287H48.7755V179.468L57.9559 166.613H52.4498V157.422Z" fill="#DA7DB5"/>
<path d="M50.6056 150.271C40.5508 150.271 32.3904 158.432 32.3904 168.487C32.3904 178.541 40.5508 186.681 50.6056 186.681C60.6603 186.681 68.8207 178.52 68.8207 168.487C68.8207 158.453 60.6603 150.271 50.6056 150.271ZM50.6056 184.433C41.779 184.433 34.6179 177.271 34.6179 168.445C34.6179 159.618 41.779 152.457 50.6056 152.457C59.4321 152.457 66.5933 159.618 66.5933 168.445C66.5933 177.271 59.4321 184.433 50.6056 184.433Z" fill="#DA7DB5"/>
<path d="M78.7625 139.707C71.2475 132.181 61.2448 128.049 50.6071 128.049C39.9695 128.049 29.9772 132.192 22.4518 139.707C6.93251 155.226 6.93251 180.488 22.4518 196.017C30.2166 203.782 40.4067 207.665 50.6071 207.665C60.8076 207.665 70.9977 203.782 78.7625 196.017C94.2818 180.498 94.2818 155.236 78.7625 139.707ZM50.6071 193.197C36.9926 193.197 25.9075 182.111 25.9075 168.497C25.9075 162.481 28.0621 156.964 31.6426 152.655L28.6241 149.637C27.7602 148.773 27.7602 147.368 28.6241 146.493C29.488 145.619 30.8932 145.629 31.7675 146.493L34.7861 149.512C38.5332 146.379 43.2482 144.318 48.3901 143.881V141.84H46.35C44.5493 141.84 43.0609 140.352 43.0609 138.551V136.834C43.0609 135.012 44.5493 133.545 46.35 133.545H54.8851C56.6858 133.545 58.1742 135.012 58.1742 136.834V138.551C58.1742 140.352 56.6858 141.84 54.8851 141.84H52.845V143.881C57.9973 144.328 62.702 146.389 66.4491 149.512L69.4676 146.493C70.3315 145.629 71.7367 145.629 72.611 146.493C73.4749 147.357 73.4749 148.762 72.611 149.637L69.5925 152.655C73.173 156.964 75.3276 162.47 75.3276 168.497C75.3276 182.111 64.2425 193.197 50.628 193.197H50.6071Z" fill="#DA7DB5"/>
<path d="M51.545 99.1234C24.2224 99.1234 1.99988 76.8906 1.99988 49.5783C1.99988 22.2661 24.2328 0.0332031 51.545 0.0332031C78.8573 0.0332031 101.09 22.2661 101.09 49.5783C101.09 76.8906 78.8573 99.1234 51.545 99.1234ZM51.545 3.33272C26.0439 3.33272 5.29946 24.0772 5.29946 49.5783C5.29946 75.0795 26.0439 95.8239 51.545 95.8239C77.0462 95.8239 97.7906 75.0795 97.7906 49.5783C97.7906 24.0772 77.0462 3.33272 51.545 3.33272Z" fill="white"/>
<path d="M83.8731 14.2241L68.5349 29.5624L71.5525 32.58L86.8908 17.2417L83.8731 14.2241Z" fill="white"/>
<path d="M31.0762 67.023L15.738 82.3612L18.7556 85.3788L34.0938 70.0405L31.0762 67.023Z" fill="white"/>
<path d="M72.0173 67.0202L68.9997 70.0378L84.3379 85.376L87.3555 82.3584L72.0173 67.0202Z" fill="white"/>
<path d="M18.7673 13.7592L15.7497 16.7768L31.0806 32.1077L34.0982 29.0901L18.7673 13.7592Z" fill="white"/>
<path d="M63.6408 50.9106C64.6401 49.9114 64.6401 48.298 63.6408 47.3092L61.5174 45.1962C60.5182 44.197 58.9049 44.197 57.9161 45.1962L56.7711 46.3412L55.4492 45.0193C54.45 44.0201 52.8367 44.0201 51.8478 45.0193L50.7029 46.1747L49.381 44.8423C48.3818 43.8431 46.7684 43.8431 45.7796 44.8423L38.7538 51.8682C38.7017 51.9202 38.7017 52.0035 38.7538 52.0659C39.6905 53.0027 41.2206 53.0027 42.1678 52.0659L46.6955 47.5382C47.1848 47.049 47.9758 47.049 48.465 47.5382L48.7981 47.8713C48.8606 47.9337 48.8606 48.0274 48.7981 48.0898L45.0198 51.8682C44.9677 51.9202 44.9677 52.0035 45.0198 52.0659C45.9565 53.0027 47.4866 53.0027 48.4338 52.0659L52.7742 47.7256C53.2634 47.2364 54.0545 47.2364 54.5437 47.7256L54.8767 48.0586C54.9288 48.1107 54.9288 48.1939 54.8767 48.2564L51.2337 51.8994C51.1817 51.9514 51.1817 52.0347 51.2337 52.0972C52.1705 53.0339 53.7006 53.0339 54.6478 52.0972L58.8424 47.9025C59.3316 47.4133 60.1227 47.4133 60.6119 47.9025L61.3301 48.6207C61.6111 48.9017 61.6111 49.3701 61.3301 49.6511L61.2156 49.7656C60.9346 50.0467 60.4662 50.0467 60.1852 49.7656L59.2588 48.8393C59.2067 48.7872 59.1235 48.7872 59.061 48.8393L57.4581 50.4422C57.4061 50.4942 57.4061 50.5775 57.4581 50.64L58.9049 52.0867C59.9041 53.086 61.5174 53.086 62.5063 52.0867L63.6513 50.9418L63.6408 50.9106Z" fill="white"/>
<path d="M51.5461 11.5764C30.5623 11.5764 13.5546 28.5841 13.5546 49.5679C13.5546 70.5517 30.5623 87.5594 51.5461 87.5594C72.5299 87.5594 89.5376 70.5517 89.5376 49.5679C89.5376 28.5841 72.5299 11.5764 51.5461 11.5764ZM53.097 23.3069C59.1964 23.6608 64.7338 26.0964 69.0222 29.9059L63.5368 35.3913C60.6744 32.9661 57.0627 31.3944 53.097 31.0613V23.3069ZM50.0056 23.3069V31.0613C46.0399 31.384 42.4281 32.9661 39.5657 35.3913L34.0804 29.9059C38.3687 26.0964 43.9061 23.6608 50.0056 23.3069ZM31.8946 32.0918L37.3799 37.5771C34.9547 40.4395 33.383 44.0513 33.0499 48.017H25.2955C25.6494 41.9175 28.085 36.3801 31.8946 32.0918ZM25.2955 51.1084H33.0499C33.3726 55.0741 34.9547 58.6858 37.3799 61.5482L31.8946 67.0336C28.085 62.7452 25.6494 57.2078 25.2955 51.1084ZM50.0056 75.8185C43.9061 75.4646 38.3687 73.0289 34.0804 69.2193L39.5657 63.734C42.4281 66.1592 46.0399 67.7309 50.0056 68.064V75.8185ZM35.5792 49.5575C35.5792 40.7413 42.73 33.5906 51.5461 33.5906C60.3622 33.5906 67.5129 40.7413 67.5129 49.5575C67.5129 58.3736 60.3622 65.5243 51.5461 65.5243C42.73 65.5243 35.5792 58.3736 35.5792 49.5575ZM53.097 75.8185V68.064C57.0627 67.7413 60.6744 66.1592 63.5368 63.734L69.0222 69.2193C64.7338 73.0289 59.1964 75.4646 53.097 75.8185ZM71.2079 67.0336L65.7226 61.5482C68.1479 58.6858 69.7195 55.0741 70.0526 51.1084H77.807C77.4532 57.2078 75.0175 62.7452 71.2079 67.0336ZM70.0526 48.017C69.7299 44.0513 68.1479 40.4395 65.7226 37.5771L71.2079 32.0918C75.0175 36.3801 77.4532 41.9175 77.807 48.017H70.0526Z" fill="white"/>
</svg>
