<svg width="100" height="612" viewBox="0 0 100 612" fill="none" xmlns="http://www.w3.org/2000/svg">
<path d="M49.7325 584.389C22.4098 584.389 0.187378 562.157 0.187378 534.844C0.187378 507.532 22.4202 485.299 49.7325 485.299C77.0447 485.299 99.2776 507.532 99.2776 534.844C99.2776 562.157 77.0447 584.389 49.7325 584.389ZM49.7325 488.599C24.2313 488.599 3.4869 509.343 3.4869 534.844C3.4869 560.345 24.2313 581.09 49.7325 581.09C75.2336 581.09 95.9781 560.345 95.9781 534.844C95.9781 509.343 75.2336 488.599 49.7325 488.599Z" fill="#DA7DB5"/>
<path d="M82.0647 499.491L66.7264 514.829L69.7441 517.847L85.0823 502.509L82.0647 499.491Z" fill="#DA7DB5"/>
<path d="M29.2638 552.29L13.9255 567.628L16.9431 570.646L32.2813 555.307L29.2638 552.29Z" fill="#DA7DB5"/>
<path d="M70.1932 552.297L67.1757 555.315L82.5139 570.653L85.5315 567.636L70.1932 552.297Z" fill="#DA7DB5"/>
<path d="M16.9393 499.036L13.9218 502.054L29.2527 517.385L32.2703 514.367L16.9393 499.036Z" fill="#DA7DB5"/>
<path d="M61.8166 536.177C62.8158 535.177 62.8158 533.564 61.8166 532.575L59.6932 530.462C58.694 529.463 57.0807 529.463 56.0919 530.462L54.9469 531.607L53.625 530.285C52.6258 529.286 51.0124 529.286 50.0236 530.285L48.8787 531.441L47.5568 530.108C46.5575 529.109 44.9442 529.109 43.9554 530.108L36.9295 537.134C36.8775 537.186 36.8775 537.27 36.9295 537.332C37.8663 538.269 39.3964 538.269 40.3436 537.332L44.8713 532.804C45.3605 532.315 46.1516 532.315 46.6408 532.804L46.9739 533.137C47.0363 533.2 47.0363 533.293 46.9739 533.356L43.1956 537.134C43.1435 537.186 43.1435 537.27 43.1956 537.332C44.1323 538.269 45.6624 538.269 46.6096 537.332L50.95 532.992C51.4392 532.502 52.2303 532.502 52.7195 532.992L53.0525 533.325C53.1045 533.377 53.1045 533.46 53.0525 533.522L49.4095 537.166C49.3574 537.218 49.3574 537.301 49.4095 537.363C50.3463 538.3 51.8764 538.3 52.8235 537.363L57.0182 533.169C57.5074 532.679 58.2985 532.679 58.7877 533.169L59.5059 533.887C59.7869 534.168 59.7869 534.636 59.5059 534.917L59.3914 535.032C59.1104 535.313 58.642 535.313 58.3609 535.032L57.4346 534.105C57.3825 534.053 57.2992 534.053 57.2368 534.105L55.6339 535.708C55.5818 535.76 55.5818 535.844 55.6339 535.906L57.0806 537.353C58.0799 538.352 59.6932 538.352 60.682 537.353L61.827 536.208L61.8166 536.177Z" fill="#DA7DB5"/>
<path d="M49.7336 496.853C28.7498 496.853 11.7421 513.861 11.7421 534.844C11.7421 555.828 28.7498 572.836 49.7336 572.836C70.7174 572.836 87.7251 555.828 87.7251 534.844C87.7251 513.861 70.7174 496.853 49.7336 496.853ZM51.2845 508.583C57.384 508.937 62.9214 511.373 67.2097 515.182L61.7244 520.668C58.862 518.243 55.2502 516.671 51.2845 516.338V508.583ZM48.1931 508.583V516.338C44.2274 516.661 40.6157 518.243 37.7533 520.668L32.2679 515.182C36.5563 511.373 42.0937 508.937 48.1931 508.583ZM30.0821 517.368L35.5674 522.854C33.1422 525.716 31.5706 529.328 31.2375 533.293H23.483C23.8369 527.194 26.2726 521.657 30.0821 517.368ZM23.483 536.385H31.2375C31.5601 540.351 33.1422 543.962 35.5674 546.825L30.0821 552.31C26.2726 548.022 23.8369 542.484 23.483 536.385ZM48.1931 561.095C42.0937 560.741 36.5563 558.305 32.2679 554.496L37.7533 549.011C40.6157 551.436 44.2274 553.007 48.1931 553.341V561.095ZM33.7668 534.834C33.7668 526.018 40.9175 518.867 49.7336 518.867C58.5497 518.867 65.7005 526.018 65.7005 534.834C65.7005 543.65 58.5497 550.801 49.7336 550.801C40.9175 550.801 33.7668 543.65 33.7668 534.834ZM51.2845 561.095V553.341C55.2502 553.018 58.862 551.436 61.7244 549.011L67.2097 554.496C62.9214 558.305 57.384 560.741 51.2845 561.095ZM69.3955 552.31L63.9102 546.825C66.3354 543.962 67.9071 540.351 68.2402 536.385H75.9946C75.6407 542.484 73.2051 548.022 69.3955 552.31ZM68.2402 533.293C67.9175 529.328 66.3354 525.716 63.9102 522.854L69.3955 517.368C73.2051 521.657 75.6407 527.194 75.9946 533.293H68.2402Z" fill="#DA7DB5"/>
<path d="M49.8769 460.933C22.5542 460.933 0.331787 438.7 0.331787 411.387C0.331787 384.075 22.5646 361.842 49.8769 361.842C77.1891 361.842 99.422 384.075 99.422 411.387C99.422 438.7 77.1891 460.933 49.8769 460.933ZM49.8769 365.142C24.3757 365.142 3.63131 385.886 3.63131 411.387C3.63131 436.889 24.3757 457.633 49.8769 457.633C75.378 457.633 96.1224 436.889 96.1224 411.387C96.1224 385.886 75.378 365.142 49.8769 365.142Z" fill="#EBF29D"/>
<path d="M65.9512 380.453C65.7014 380.453 65.4516 380.401 65.2226 380.286C60.4242 377.913 55.2616 376.706 49.8803 376.706C44.499 376.706 39.3364 377.913 34.538 380.286C33.9031 380.599 33.1432 380.474 32.6436 379.974L24.1293 371.46C23.765 371.096 23.5985 370.596 23.6609 370.086C23.7234 369.576 24.0149 369.128 24.452 368.868C32.1232 364.268 40.9185 361.842 49.8907 361.842C58.863 361.842 67.6583 364.278 75.3294 368.868C75.7666 369.128 76.058 369.576 76.1205 370.086C76.1829 370.596 76.006 371.096 75.6521 371.46L67.1378 379.974C66.8152 380.286 66.3988 380.453 65.9617 380.453H65.9512ZM49.8803 373.406C55.3657 373.406 60.6532 374.551 65.6077 376.81L71.7697 370.648C65.0665 367.036 57.5411 365.142 49.8803 365.142C42.2195 365.142 34.6941 367.036 27.991 370.648L34.1529 376.81C39.1074 374.551 44.395 373.406 49.8803 373.406Z" fill="#EBF29D"/>
<path d="M49.8785 460.932C40.9063 460.932 32.111 458.497 24.4398 453.907C24.0026 453.646 23.7112 453.199 23.6487 452.689C23.5863 452.179 23.7632 451.679 24.1171 451.315L32.6314 442.801C33.131 442.301 33.9013 442.176 34.5258 442.488C39.3242 444.862 44.4868 446.069 49.8681 446.069C55.2494 446.069 60.4121 444.862 65.2105 442.488C65.8454 442.176 66.6052 442.301 67.1048 442.801L75.6191 451.315C75.9834 451.679 76.1499 452.179 76.0875 452.689C76.025 453.199 75.7336 453.646 75.2964 453.907C67.6252 458.507 58.83 460.932 49.8577 460.932H49.8785ZM27.9892 452.127C34.6923 455.739 42.2178 457.633 49.8785 457.633C57.5393 457.633 65.0647 455.739 71.7679 452.127L65.606 445.965C60.6514 448.224 55.3639 449.369 49.8785 449.369C44.3932 449.369 39.1056 448.224 34.1511 445.965L27.9892 452.127Z" fill="#EBF29D"/>
<path d="M90.9825 437.628C90.5453 437.628 90.129 437.461 89.8167 437.149L81.3025 428.635C80.8028 428.135 80.678 427.365 80.9902 426.74C83.3634 421.942 84.5708 416.779 84.5708 411.398C84.5708 406.017 83.3634 400.854 80.9902 396.056C80.678 395.421 80.8028 394.65 81.3025 394.161L89.8167 385.647C90.181 385.283 90.6806 385.116 91.1907 385.178C91.7007 385.241 92.1482 385.532 92.4085 385.97C97.0091 393.641 99.4343 402.436 99.4343 411.408C99.4343 420.38 97.0091 429.176 92.4085 436.847C92.1482 437.284 91.7007 437.576 91.1907 437.638C91.1178 437.638 91.0553 437.638 90.9825 437.638V437.628ZM84.4563 427.115L90.6182 433.277C94.23 426.574 96.1243 419.048 96.1243 411.387C96.1243 403.727 94.23 396.201 90.6182 389.498L84.4563 395.66C86.715 400.614 87.8599 405.902 87.8599 411.387C87.8599 416.873 86.715 422.16 84.4563 427.115Z" fill="#EBF29D"/>
<path d="M8.77298 437.628C8.70012 437.628 8.63767 437.628 8.57521 437.617C8.06519 437.555 7.61764 437.263 7.35742 436.826C2.7568 429.155 0.331593 420.36 0.331593 411.387C0.331593 402.415 2.7568 393.62 7.35742 385.949C7.61764 385.512 8.06519 385.22 8.57521 385.158C9.08524 385.095 9.58486 385.272 9.94916 385.626L18.4634 394.14C18.963 394.64 19.0879 395.41 18.7757 396.035C16.4025 400.833 15.1951 405.996 15.1951 411.377C15.1951 416.758 16.4025 421.921 18.7757 426.719C19.0879 427.354 18.963 428.124 18.4634 428.614L9.94916 437.128C9.6369 437.44 9.22056 437.617 8.7834 437.617L8.77298 437.628ZM9.13726 389.498C5.52546 396.201 3.63111 403.727 3.63111 411.387C3.63111 419.048 5.52546 426.574 9.13726 433.277L15.2992 427.115C13.0405 422.16 11.8956 416.873 11.8956 411.387C11.8956 405.902 13.0405 400.615 15.2992 395.66L9.13726 389.498Z" fill="#EBF29D"/>
<path d="M49.878 373.396C28.9358 373.396 11.8865 390.435 11.8865 411.387C11.8865 432.34 28.9254 449.379 49.878 449.379C70.8306 449.379 87.8695 432.34 87.8695 411.387C87.8695 390.435 70.8306 373.396 49.878 373.396ZM71.2574 398.907C73.0581 401.988 74.151 405.35 74.5049 408.921C74.5153 409.066 74.4528 409.202 74.3279 409.274C71.6112 410.94 69.1756 412.98 67.0731 415.363C66.9794 415.478 66.8233 415.52 66.688 415.468L61.9937 413.938C61.8583 413.896 61.7647 413.781 61.7439 413.636C61.213 409.753 60.0056 406.037 58.1529 402.582C58.0904 402.457 58.1009 402.311 58.1841 402.197L61.0881 398.2C61.161 398.106 61.2754 398.044 61.3899 398.044C61.4212 398.044 61.442 398.044 61.4732 398.044C64.575 398.73 67.7601 398.959 70.9243 398.699C71.07 398.689 71.2053 398.762 71.2781 398.887L71.2574 398.907ZM59.1833 414.291C59.1937 414.395 59.1625 414.5 59.1 414.572C56.6332 417.414 53.4898 419.693 50.0237 421.151C49.9301 421.192 49.8364 421.192 49.7427 421.151C46.2766 419.683 43.1332 417.404 40.6664 414.572C40.6039 414.5 40.5727 414.395 40.5831 414.291C41.0619 410.523 42.2381 406.922 44.0596 403.591C44.1116 403.498 44.1949 403.435 44.299 403.414C46.1309 403.029 48.0044 402.832 49.8884 402.832C51.7724 402.832 53.6459 403.029 55.4778 403.414C55.5819 403.435 55.6652 403.498 55.7172 403.591C57.5387 406.922 58.7045 410.523 59.1937 414.291H59.1833ZM58.6213 388.457C58.6213 388.457 58.7462 388.353 58.8711 388.353C58.9127 388.353 58.9648 388.353 59.0168 388.384C62.8472 389.904 66.2716 392.402 68.9362 395.598C69.0715 395.754 69.0195 395.92 68.9882 395.983C68.9674 396.035 68.8738 396.201 68.6552 396.201C66.2925 396.232 63.9401 395.962 61.6606 395.421C61.5669 395.4 61.4837 395.337 61.4316 395.254C60.2138 393.245 59.2354 391.08 58.5276 388.832C58.4651 388.634 58.5796 388.499 58.6317 388.457H58.6213ZM44.6216 387.208C48.0669 386.469 51.6995 386.469 55.1448 387.208C55.2801 387.239 55.3946 387.343 55.4258 387.479C56.1648 390.57 57.3618 393.526 58.9751 396.264C59.048 396.389 59.0376 396.545 58.9544 396.67L56.0711 400.646C55.9879 400.76 55.8422 400.823 55.7069 400.791C51.8973 400.021 47.8692 400.021 44.0596 400.791C43.9243 400.823 43.7785 400.76 43.6953 400.646L40.8121 396.67C40.7288 396.555 40.7184 396.389 40.7913 396.264C42.4046 393.526 43.6016 390.57 44.3406 387.479C44.3718 387.343 44.4863 387.239 44.6216 387.208ZM30.8302 395.598C33.4948 392.392 36.9193 389.894 40.7497 388.384C40.8017 388.364 40.8537 388.353 40.8953 388.353C41.0306 388.353 41.1139 388.426 41.1451 388.457C41.1972 388.509 41.3117 388.634 41.2493 388.832C40.5415 391.091 39.563 393.245 38.3452 395.254C38.2932 395.337 38.2099 395.4 38.1162 395.421C35.8368 395.962 33.4844 396.232 31.1217 396.201C30.9031 396.201 30.8094 396.035 30.7886 395.983C30.7574 395.92 30.7053 395.754 30.8406 395.598H30.8302ZM28.5091 398.907C28.5715 398.793 28.6965 398.72 28.8318 398.72C28.8318 398.72 28.8525 398.72 28.863 398.72C32.0376 398.97 35.2226 398.751 38.314 398.064C38.4597 398.033 38.6054 398.085 38.6887 398.21L41.5928 402.207C41.676 402.321 41.6864 402.478 41.624 402.592C39.7712 406.048 38.5638 409.764 38.033 413.646C38.0121 413.781 37.9185 413.896 37.7832 413.948L33.0889 415.478C32.9535 415.52 32.7974 415.478 32.7037 415.374C30.6012 412.99 28.1656 410.95 25.449 409.285C25.3345 409.212 25.2616 409.077 25.272 408.931C25.6259 405.361 26.7188 401.988 28.5195 398.918L28.5091 398.907ZM29.6436 424.554C29.5812 424.752 29.4042 424.794 29.3314 424.804C29.2585 424.804 29.0919 424.804 28.9774 424.638C26.7604 421.151 25.449 417.112 25.1887 412.97C25.1783 412.761 25.3136 412.657 25.3761 412.626C25.4385 412.595 25.6051 412.522 25.7716 412.647C27.6972 414.01 29.4459 415.613 30.9759 417.393C31.0384 417.466 31.0696 417.56 31.0592 417.664C30.8718 420.006 30.393 422.327 29.6332 424.565L29.6436 424.554ZM39.9273 434.057C36.6798 432.631 33.8175 430.539 31.4235 427.854C31.3298 427.75 31.2986 427.594 31.3506 427.469C32.5684 424.534 33.3387 421.442 33.6405 418.278C33.651 418.132 33.755 418.007 33.8903 417.966L38.5326 416.456C38.5326 416.456 38.6055 416.436 38.6471 416.436C38.7512 416.436 38.8449 416.477 38.9177 416.561C41.5199 419.475 44.7778 421.848 48.348 423.42C48.4833 423.482 48.5665 423.607 48.5665 423.753V428.635C48.5665 428.78 48.4833 428.916 48.348 428.968C45.4335 430.227 42.7272 431.924 40.302 433.995C40.1979 434.089 40.0418 434.109 39.9169 434.047L39.9273 434.057ZM56.3001 435.088C56.2897 435.161 56.2377 435.327 56.0295 435.379C52.0118 436.399 47.765 436.399 43.7473 435.379C43.5495 435.327 43.4871 435.161 43.4767 435.088C43.4663 435.015 43.4454 434.848 43.6224 434.713C45.5168 433.308 47.5777 432.132 49.7531 431.226C49.8468 431.185 49.9405 431.185 50.0341 431.226C52.1991 432.132 54.2601 433.308 56.1648 434.713C56.3314 434.838 56.3209 435.015 56.3105 435.088H56.3001ZM68.3637 427.864C65.9698 430.55 63.1074 432.631 59.8599 434.057C59.7246 434.12 59.5789 434.089 59.4748 434.005C57.0496 431.934 54.3537 430.237 51.4289 428.978C51.2936 428.916 51.2103 428.791 51.2103 428.645V423.763C51.2103 423.618 51.2936 423.482 51.4289 423.43C54.999 421.858 58.2673 419.485 60.8591 416.571C60.932 416.488 61.0256 416.446 61.1297 416.446C61.1714 416.446 61.2026 416.446 61.2442 416.467L65.8865 417.976C66.0218 418.018 66.1259 418.143 66.1363 418.288C66.4381 421.453 67.2084 424.534 68.4262 427.479C68.4782 427.604 68.4574 427.76 68.3533 427.864H68.3637ZM70.7994 424.648C70.6849 424.825 70.5079 424.825 70.4455 424.815C70.3726 424.815 70.2061 424.763 70.1332 424.565C69.3838 422.327 68.905 420.006 68.7072 417.664C68.7072 417.57 68.728 417.466 68.7905 417.393C70.3205 415.613 72.0692 414.021 73.9948 412.647C74.0676 412.595 74.1405 412.574 74.203 412.574C74.2862 412.574 74.3487 412.605 74.3903 412.626C74.4528 412.657 74.5985 412.761 74.5777 412.97C74.3175 417.112 73.006 421.151 70.789 424.638L70.7994 424.648Z" fill="#EBF29D"/>
<path d="M99.1109 289.065C99.1109 316.388 76.878 338.621 49.5554 338.621C22.2327 338.621 -0.00012207 316.388 -0.00012207 289.065C-0.00012207 261.742 22.2327 239.51 49.5554 239.51C76.878 239.51 99.1109 261.742 99.1109 289.065ZM3.57003 289.065C3.57003 314.421 24.1999 335.051 49.5554 335.051C74.9108 335.051 95.5407 314.421 95.5407 289.065C95.5407 263.71 74.9108 243.08 49.5554 243.08C24.1999 243.08 3.57003 263.71 3.57003 289.065Z" fill="#11F8A5"/>
<path d="M99.1135 167.929C99.1135 168.918 98.312 169.709 97.3336 169.709C96.3552 169.709 95.5537 168.908 95.5537 167.929C95.5537 142.574 74.9238 121.944 49.5684 121.944C24.213 121.944 3.58305 142.574 3.58305 167.929C3.58305 168.918 2.78156 169.709 1.80315 169.709C0.82474 169.709 0.0233154 168.908 0.0233154 167.929C0.0233154 140.607 22.2561 118.374 49.5788 118.374C76.9015 118.374 99.1343 140.607 99.1343 167.929H99.1135Z" fill="#11F8A5"/>
<path d="M40.0118 280.312C40.0118 282.133 41.2505 283.715 43.0199 284.152L46.3819 284.995V276.346H43.9879C41.8021 276.346 40.0222 278.126 40.0222 280.312H40.0118Z" fill="#11F8A5"/>
<path d="M52.7292 301.785H55.1232C57.3091 301.785 59.0889 300.005 59.0889 297.819C59.0889 295.997 57.8503 294.415 56.0808 293.978L52.7189 293.135V301.785H52.7292Z" fill="#11F8A5"/>
<path d="M49.5562 248.742C27.3234 248.742 9.22277 266.832 9.22277 289.076C9.22277 311.319 27.313 329.409 49.5562 329.409C71.7995 329.409 89.8897 311.319 89.8897 289.076C89.8897 266.832 71.7995 248.742 49.5562 248.742ZM65.4607 282.705H59.1009V279.52C59.1009 277.772 57.6749 276.335 55.9159 276.335H52.7308V286.578L57.6333 287.806C62.234 288.961 65.4502 293.072 65.4502 297.819C65.4502 303.512 60.8184 308.144 55.1249 308.144H52.7308V316.2H46.3712V308.144H43.1861C37.9194 308.144 33.6414 303.866 33.6414 298.599V295.414H40.0011V298.599C40.0011 300.348 41.4271 301.785 43.1861 301.785H46.3712V291.542L41.4687 290.314C36.8681 289.159 33.6519 285.047 33.6519 280.301C33.6519 274.608 38.2837 269.976 43.9772 269.976H46.3712V261.919H52.7308V269.976H55.9159C61.1827 269.976 65.4607 274.254 65.4607 279.52V282.705Z" fill="#11F8A5"/>
<path d="M99.1729 167.17V286.765C99.1729 287.754 98.3715 288.545 97.3931 288.545C96.4146 288.545 95.6132 287.743 95.6132 286.765V167.17C95.6132 166.181 96.4146 165.39 97.3931 165.39C98.3715 165.39 99.1729 166.191 99.1729 167.17Z" fill="#11F8A5"/>
<path d="M3.63774 166.909V286.505C3.63774 287.493 2.83625 288.284 1.85784 288.284C0.879427 288.284 0.0780029 287.483 0.0780029 286.505V166.909C0.0780029 165.921 0.879427 165.13 1.85784 165.13C2.83625 165.13 3.63774 165.931 3.63774 166.909Z" fill="#11F8A5"/>
<path d="M49.7325 99.1214C37.0339 99.1214 24.3458 94.2919 14.6762 84.6223C-4.65264 65.2934 -4.65264 33.8489 14.6762 14.5201C24.044 5.15229 36.4927 0 49.7325 0C62.9722 0 75.421 5.15229 84.7888 14.5201C104.118 33.8489 104.118 65.2934 84.7888 84.6223C75.1296 94.2815 62.431 99.1214 49.7325 99.1214ZM17.2784 82.0201C35.1708 99.9126 64.2838 99.9126 82.1762 82.0201C100.069 64.1277 100.069 35.0147 82.1762 17.1222C73.5058 8.45183 61.9835 3.6847 49.7221 3.6847C37.4607 3.6847 25.9383 8.46223 17.2679 17.1222C-0.624513 35.0147 -0.624513 64.1277 17.2679 82.0201H17.2784Z" fill="#EBF29D"/>
<path d="M49.0769 68.1142C49.2538 68.541 49.6701 68.7907 50.1073 68.7907C50.253 68.7907 50.3987 68.7595 50.5445 68.7074C54.0418 67.2398 57.2268 64.9707 59.7457 62.1395C60.1517 61.6816 60.11 60.9739 59.652 60.5679C59.194 60.162 58.4862 60.2036 58.0803 60.6616C55.78 63.2533 52.876 65.3247 49.6805 66.657C49.1185 66.8964 48.8478 67.5521 49.0872 68.1142H49.0769Z" fill="#EBF29D"/>
<path d="M68.6225 32.4334L50.1368 25.0432C49.8661 24.9391 49.5747 24.9391 49.3041 25.0432L30.8183 32.4334C30.3916 32.5999 30.121 33.0058 30.121 33.4638V46.7036C30.1418 58.9233 37.865 69.9669 49.3353 74.172C49.4602 74.2136 49.5851 74.2345 49.7204 74.2345C49.8558 74.2345 49.9807 74.2136 50.1056 74.172C61.5759 69.9565 69.299 58.9233 69.3199 46.7036V33.4638C69.3199 33.0058 69.0493 32.5999 68.6225 32.4334ZM67.0925 46.7036C67.0716 57.82 60.0978 67.9476 49.7308 71.9341C39.3638 67.9476 32.3796 57.82 32.3588 46.7036V34.2236L49.7308 27.2811L67.0925 34.2236V46.7036Z" fill="#EBF29D"/>
<path d="M42.0083 34.1715C41.7376 34.057 41.4358 34.057 41.1548 34.1715L36.7519 35.9306C36.3252 36.0972 36.0546 36.5031 36.0546 36.9611V41.6554C36.0546 42.2695 36.5542 42.769 37.1683 42.769C37.7824 42.769 38.282 42.2695 38.282 41.6554V37.7209L41.9771 36.2429C42.2581 36.1284 42.4663 35.9202 42.5912 35.6392C42.7056 35.3685 42.7056 35.0667 42.5912 34.7857C42.4767 34.5047 42.2685 34.2964 41.9979 34.1715H42.0083Z" fill="#EBF29D"/>
<path d="M77.8876 21.4211C70.3726 13.8956 60.3698 9.76337 49.7322 9.76337C39.0946 9.76337 29.1023 13.906 21.5768 21.4211C6.05756 36.9403 6.05756 62.2021 21.5768 77.7318C29.3417 85.4966 39.5317 89.3686 49.7322 89.3686C59.9326 89.3686 70.1227 85.4862 77.8876 77.7318C93.4069 62.2125 93.4069 36.9507 77.8876 21.4211ZM72.3814 46.7036C72.4126 60.8281 63.3883 73.1832 49.9299 77.4612C49.805 77.5028 49.6697 77.5028 49.5344 77.4612C36.076 73.1832 27.0518 60.8281 27.083 46.7036V31.0802C27.083 30.82 27.2391 30.5807 27.4889 30.4766L49.4928 21.6813C49.5657 21.65 49.6489 21.6397 49.7322 21.6397C49.8154 21.6397 49.8988 21.65 49.9716 21.6813L71.9755 30.487C72.2253 30.5807 72.3814 30.82 72.3814 31.0906V46.714V46.7036Z" fill="#EBF29D"/>
</svg>
