<svg width="102" height="624" viewBox="0 0 102 624" fill="none" xmlns="http://www.w3.org/2000/svg">
<path d="M49.6976 596.389C22.3749 596.389 0.152466 574.156 0.152466 546.844C0.152466 519.532 22.3854 497.299 49.6976 497.299C77.0099 497.299 99.2427 519.532 99.2427 546.844C99.2427 574.156 77.0099 596.389 49.6976 596.389ZM49.6976 500.599C24.1965 500.599 3.45205 521.343 3.45205 546.844C3.45205 572.345 24.1965 593.09 49.6976 593.09C75.1988 593.09 95.9432 572.345 95.9432 546.844C95.9432 521.343 75.1988 500.599 49.6976 500.599Z" fill="white"/>
<path d="M65.7682 515.899C65.5184 515.899 65.2686 515.847 65.0396 515.733C60.2412 513.36 55.0786 512.152 49.6973 512.152C44.316 512.152 39.1534 513.36 34.355 515.733C33.7201 516.045 32.9602 515.92 32.4606 515.421L23.9463 506.906C23.582 506.542 23.4155 506.042 23.4779 505.532C23.5404 505.022 23.8318 504.575 24.269 504.315C31.9402 499.714 40.7355 497.289 49.7077 497.289C58.68 497.289 67.4753 499.724 75.1464 504.315C75.5836 504.575 75.875 505.022 75.9374 505.532C75.9999 506.042 75.823 506.542 75.4691 506.906L66.9548 515.421C66.6321 515.733 66.2158 515.899 65.7786 515.899H65.7682ZM49.6973 508.853C55.1826 508.853 60.4702 509.998 65.4247 512.256L71.5866 506.095C64.8835 502.483 57.3581 500.588 49.6973 500.588C42.0365 500.588 34.5111 502.483 27.8079 506.095L33.9699 512.256C38.9244 509.998 44.2119 508.853 49.6973 508.853Z" fill="white"/>
<path d="M49.6955 596.389C40.7233 596.389 31.928 593.954 24.2568 589.364C23.8196 589.103 23.5282 588.656 23.4657 588.146C23.4033 587.636 23.5802 587.136 23.9341 586.772L32.4484 578.258C32.948 577.758 33.7182 577.633 34.3428 577.945C39.1411 580.318 44.3038 581.526 49.6851 581.526C55.0664 581.526 60.229 580.318 65.0274 577.945C65.6623 577.633 66.4222 577.758 66.9218 578.258L75.436 586.772C75.8003 587.136 75.9669 587.636 75.9044 588.146C75.842 588.656 75.5505 589.103 75.1134 589.364C67.4422 593.964 58.6469 596.389 49.6747 596.389H49.6955ZM27.8061 587.584C34.5093 591.195 42.0347 593.09 49.6955 593.09C57.3563 593.09 64.8817 591.195 71.5848 587.584L65.4229 581.422C60.4684 583.68 55.1809 584.825 49.6955 584.825C44.2102 584.825 38.9226 583.68 33.9681 581.422L27.8061 587.584Z" fill="white"/>
<path d="M90.8034 573.074C90.3662 573.074 89.9499 572.908 89.6376 572.595L81.1234 564.081C80.6237 563.581 80.4989 562.811 80.8111 562.187C83.1843 557.388 84.3916 552.226 84.3916 546.844C84.3916 541.463 83.1843 536.3 80.8111 531.502C80.4989 530.867 80.6237 530.097 81.1234 529.608L89.6376 521.093C90.0019 520.729 90.5015 520.563 91.0116 520.625C91.5216 520.687 91.9691 520.979 92.2294 521.416C96.83 529.087 99.2552 537.883 99.2552 546.855C99.2552 555.827 96.83 564.622 92.2294 572.293C91.9691 572.731 91.5216 573.022 91.0116 573.085C90.9387 573.085 90.8762 573.085 90.8034 573.085V573.074ZM84.2771 562.561L90.4391 568.723C94.0509 562.02 95.9452 554.495 95.9452 546.834C95.9452 539.173 94.0509 531.648 90.4391 524.945L84.2771 531.106C86.5358 536.061 87.6808 541.349 87.6808 546.834C87.6808 552.319 86.5358 557.607 84.2771 562.561Z" fill="white"/>
<path d="M8.59416 573.074C8.5213 573.074 8.45885 573.074 8.3964 573.064C7.88637 573.001 7.43876 572.71 7.17854 572.273C2.57792 564.601 0.15271 555.806 0.15271 546.834C0.15271 537.862 2.57792 529.066 7.17854 521.395C7.43876 520.958 7.88637 520.667 8.3964 520.604C8.90642 520.542 9.40604 520.719 9.77034 521.072L18.2846 529.587C18.7842 530.086 18.9091 530.857 18.5968 531.481C16.2237 536.28 15.0163 541.442 15.0163 546.824C15.0163 552.205 16.2237 557.367 18.5968 562.166C18.9091 562.801 18.7842 563.571 18.2846 564.06L9.77034 572.574C9.45808 572.887 9.04168 573.064 8.60452 573.064L8.59416 573.074ZM8.95844 524.945C5.34664 531.648 3.45229 539.173 3.45229 546.834C3.45229 554.495 5.34664 562.02 8.95844 568.723L15.1203 562.561C12.8617 557.607 11.7168 552.319 11.7168 546.834C11.7168 541.349 12.8617 536.061 15.1203 531.106L8.95844 524.945Z" fill="white"/>
<path d="M49.6987 508.853C28.7565 508.853 11.7072 525.892 11.7072 546.844C11.7072 567.797 28.7461 584.836 49.6987 584.836C70.6513 584.836 87.6902 567.797 87.6902 546.844C87.6902 525.892 70.6513 508.853 49.6987 508.853ZM71.078 534.364C72.8787 537.445 73.9716 540.807 74.3255 544.378C74.3359 544.523 74.2734 544.659 74.1485 544.731C71.4319 546.397 68.9962 548.437 66.8937 550.82C66.8 550.935 66.6439 550.977 66.5086 550.925L61.8143 549.394C61.679 549.353 61.5853 549.238 61.5645 549.093C61.0336 545.21 59.8263 541.494 57.9735 538.039C57.9111 537.914 57.9215 537.768 58.0047 537.654L60.9087 533.657C60.9816 533.563 61.0961 533.5 61.2106 533.5C61.2418 533.5 61.2627 533.5 61.2939 533.5C64.3957 534.187 67.5807 534.416 70.7449 534.156C70.8906 534.146 71.026 534.219 71.0988 534.344L71.078 534.364ZM59.004 549.748C59.0144 549.852 58.9832 549.957 58.9207 550.029C56.4539 552.871 53.3105 555.15 49.8444 556.608C49.7507 556.649 49.657 556.649 49.5634 556.608C46.0973 555.14 42.9538 552.861 40.487 550.029C40.4245 549.957 40.3934 549.852 40.4038 549.748C40.8826 545.98 42.0587 542.379 43.8802 539.048C43.9323 538.955 44.0156 538.892 44.1197 538.871C45.9516 538.486 47.8251 538.288 49.7091 538.288C51.5931 538.288 53.4666 538.486 55.2985 538.871C55.4026 538.892 55.4859 538.955 55.5379 539.048C57.3594 542.379 58.5252 545.98 59.0144 549.748H59.004ZM58.4419 523.914C58.4419 523.914 58.5668 523.81 58.6917 523.81C58.7334 523.81 58.7854 523.81 58.8374 523.841C62.6678 525.361 66.0923 527.859 68.7569 531.054C68.8922 531.211 68.8401 531.377 68.8089 531.44C68.7881 531.492 68.6944 531.658 68.4758 531.658C66.1131 531.689 63.7607 531.419 61.4813 530.878C61.3876 530.857 61.3043 530.794 61.2522 530.711C60.0344 528.702 59.056 526.537 58.3482 524.289C58.2858 524.091 58.4003 523.956 58.4523 523.914H58.4419ZM44.4423 522.665C47.8876 521.926 51.5202 521.926 54.9654 522.665C55.1008 522.696 55.2152 522.8 55.2464 522.936C55.9854 526.027 57.1825 528.983 58.7958 531.721C58.8687 531.846 58.8582 532.002 58.775 532.127L55.8918 536.103C55.8086 536.217 55.6628 536.28 55.5275 536.248C51.7179 535.478 47.6898 535.478 43.8802 536.248C43.7449 536.28 43.5992 536.217 43.5159 536.103L40.6327 532.127C40.5495 532.012 40.539 531.846 40.6119 531.721C42.2252 528.983 43.4223 526.027 44.1613 522.936C44.1925 522.8 44.307 522.696 44.4423 522.665ZM30.6509 531.054C33.3155 527.849 36.7399 525.351 40.5703 523.841C40.6223 523.82 40.6744 523.81 40.716 523.81C40.8513 523.81 40.9346 523.883 40.9658 523.914C41.0179 523.966 41.1323 524.091 41.0699 524.289C40.3621 526.548 39.3837 528.702 38.1659 530.711C38.1138 530.794 38.0306 530.857 37.9369 530.878C35.6574 531.419 33.3051 531.689 30.9423 531.658C30.7237 531.658 30.63 531.492 30.6092 531.44C30.578 531.377 30.5259 531.211 30.6612 531.054H30.6509ZM28.3297 534.364C28.3922 534.25 28.5171 534.177 28.6524 534.177C28.6524 534.177 28.6732 534.177 28.6836 534.177C31.8583 534.427 35.0433 534.208 38.1347 533.521C38.2804 533.49 38.4261 533.542 38.5094 533.667L41.4134 537.664C41.4966 537.778 41.5071 537.935 41.4446 538.049C39.5919 541.505 38.3845 545.221 37.8536 549.103C37.8328 549.238 37.7392 549.353 37.6038 549.405L32.9095 550.935C32.7742 550.977 32.6181 550.935 32.5244 550.831C30.4219 548.447 27.9862 546.407 25.2696 544.742C25.1551 544.669 25.0822 544.534 25.0926 544.388C25.4465 540.818 26.5394 537.445 28.3401 534.375L28.3297 534.364ZM29.4643 560.011C29.4018 560.209 29.2249 560.251 29.152 560.261C29.0792 560.261 28.9126 560.261 28.7981 560.095C26.5811 556.608 25.2696 552.569 25.0094 548.426C24.9989 548.218 25.1343 548.114 25.1967 548.083C25.2592 548.052 25.4257 547.979 25.5922 548.104C27.5178 549.467 29.2665 551.07 30.7966 552.85C30.859 552.923 30.8903 553.017 30.8798 553.121C30.6925 555.463 30.2137 557.784 29.4539 560.022L29.4643 560.011ZM39.748 569.514C36.5005 568.088 33.6381 565.996 31.2441 563.311C31.1504 563.207 31.1193 563.051 31.1713 562.926C32.3891 559.99 33.1593 556.899 33.4612 553.735C33.4716 553.589 33.5757 553.464 33.711 553.423L38.3532 551.913C38.3532 551.913 38.4261 551.893 38.4677 551.893C38.5718 551.893 38.6655 551.934 38.7383 552.017C41.3405 554.932 44.5984 557.305 48.1686 558.877C48.3039 558.939 48.3872 559.064 48.3872 559.21V564.091C48.3872 564.237 48.3039 564.373 48.1686 564.425C45.2542 565.684 42.5479 567.381 40.1227 569.452C40.0186 569.546 39.8625 569.566 39.7376 569.504L39.748 569.514ZM56.1208 570.545C56.1104 570.618 56.0583 570.784 55.8501 570.836C51.8324 571.856 47.5857 571.856 43.568 570.836C43.3702 570.784 43.3077 570.618 43.2973 570.545C43.2869 570.472 43.2661 570.305 43.4431 570.17C45.3374 568.765 47.3984 567.589 49.5738 566.683C49.6675 566.642 49.7611 566.642 49.8548 566.683C52.0198 567.589 54.0807 568.765 55.9855 570.17C56.152 570.295 56.1416 570.472 56.1312 570.545H56.1208ZM68.1844 563.321C65.7904 566.007 62.928 568.088 59.6805 569.514C59.5452 569.577 59.3995 569.546 59.2954 569.462C56.8702 567.391 54.1744 565.694 51.2495 564.435C51.1142 564.373 51.0309 564.248 51.0309 564.102V559.22C51.0309 559.075 51.1142 558.939 51.2495 558.887C54.8197 557.315 58.088 554.942 60.6798 552.028C60.7526 551.945 60.8463 551.903 60.9504 551.903C60.992 551.903 61.0232 551.903 61.0649 551.924L65.7072 553.433C65.8425 553.475 65.9465 553.6 65.957 553.745C66.2588 556.91 67.0291 559.99 68.2469 562.936C68.2989 563.061 68.2781 563.217 68.174 563.321H68.1844ZM70.62 560.105C70.5055 560.282 70.3286 560.282 70.2661 560.272C70.1933 560.272 70.0267 560.219 69.9538 560.022C69.2044 557.784 68.7256 555.463 68.5279 553.121C68.5279 553.027 68.5487 552.923 68.6111 552.85C70.1412 551.07 71.8899 549.478 73.8155 548.104C73.8883 548.052 73.9612 548.031 74.0236 548.031C74.1069 548.031 74.1694 548.062 74.211 548.083C74.2734 548.114 74.4192 548.218 74.3983 548.426C74.1381 552.569 72.8266 556.608 70.6096 560.095L70.62 560.105Z" fill="white"/>
<path d="M49.5529 472.933C36.8544 472.933 24.1663 468.103 14.4966 458.433C-4.83221 439.105 -4.83221 407.66 14.4966 388.331C23.8644 378.963 36.3131 373.811 49.5529 373.811C62.7927 373.811 75.2414 378.963 84.6092 388.331C103.938 407.66 103.938 439.105 84.6092 458.433C74.95 468.093 62.2514 472.933 49.5529 472.933ZM17.0988 455.831C34.9912 473.724 64.1042 473.724 81.9966 455.831C99.8891 437.939 99.8891 408.826 81.9966 390.933C73.3262 382.263 61.8039 377.496 49.5425 377.496C37.2811 377.496 25.7588 382.273 17.0884 390.933C-0.804078 408.826 -0.804078 437.939 17.0884 455.831H17.0988Z" fill="#EBF29D"/>
<path d="M48.8972 441.936C49.0742 442.362 49.4905 442.612 49.9277 442.612C50.0734 442.612 50.2192 442.581 50.3649 442.529C53.8622 441.061 57.0472 438.792 59.5661 435.961C59.972 435.503 59.9304 434.795 59.4724 434.389C59.0145 433.983 58.3067 434.025 57.9007 434.483C55.6004 437.075 52.6964 439.146 49.501 440.478C48.9389 440.718 48.6683 441.374 48.9077 441.936H48.8972Z" fill="#EBF29D"/>
<path d="M68.4432 406.244L49.9574 398.854C49.6868 398.75 49.3954 398.75 49.1247 398.854L30.639 406.244C30.2122 406.411 29.9416 406.817 29.9416 407.275V420.515C29.9624 432.734 37.6856 443.778 49.1559 447.983C49.2808 448.025 49.4057 448.045 49.541 448.045C49.6764 448.045 49.8012 448.025 49.9262 447.983C61.3965 443.768 69.1197 432.734 69.1405 420.515V407.275C69.1405 406.817 68.8699 406.411 68.4432 406.244ZM66.9131 420.515C66.8922 431.631 59.9185 441.759 49.5515 445.745C39.1845 441.759 32.2003 431.631 32.1794 420.515V408.035L49.5515 401.092L66.9131 408.035V420.515Z" fill="#EBF29D"/>
<path d="M41.8288 407.983C41.5581 407.868 41.2563 407.868 40.9753 407.983L36.5724 409.742C36.1457 409.908 35.875 410.314 35.875 410.772V415.466C35.875 416.081 36.3746 416.58 36.9887 416.58C37.6028 416.58 38.1025 416.081 38.1025 415.466V411.532L41.7975 410.054C42.0785 409.939 42.2867 409.731 42.4117 409.45C42.5261 409.18 42.5261 408.878 42.4117 408.597C42.2972 408.316 42.089 408.108 41.8184 407.983H41.8288Z" fill="#EBF29D"/>
<path d="M77.6962 395.232C70.1812 387.707 60.1785 383.574 49.5409 383.574C38.9033 383.574 28.911 387.717 21.3855 395.232C5.86628 410.751 5.86628 436.013 21.3855 451.543C29.1504 459.308 39.3404 463.18 49.5409 463.18C59.7414 463.18 69.9314 459.297 77.6962 451.543C93.2155 436.024 93.2155 410.762 77.6962 395.232ZM72.1901 420.515C72.2213 434.639 63.197 446.994 49.7387 451.272C49.6138 451.314 49.4784 451.314 49.3431 451.272C35.8848 446.994 26.8605 434.639 26.8917 420.515V404.891C26.8917 404.631 27.0478 404.392 27.2976 404.288L49.3015 395.492C49.3744 395.461 49.4576 395.451 49.5409 395.451C49.6242 395.451 49.7074 395.461 49.7803 395.492L71.7841 404.298C72.0339 404.392 72.1901 404.631 72.1901 404.902V420.525V420.515Z" fill="#EBF29D"/>
<path d="M49.967 350.621C22.6444 350.621 0.421875 328.388 0.421875 301.076C0.421875 273.763 22.6548 251.53 49.967 251.53C77.2793 251.53 99.5121 273.763 99.5121 301.076C99.5121 328.388 77.2793 350.621 49.967 350.621ZM49.967 254.83C24.4659 254.83 3.72139 275.574 3.72139 301.076C3.72139 326.577 24.4659 347.321 49.967 347.321C75.4682 347.321 96.2126 326.577 96.2126 301.076C96.2126 275.574 75.4682 254.83 49.967 254.83Z" fill="#11F8A5" fill-opacity="0.99"/>
<path d="M82.2877 265.729L66.9494 281.067L69.9671 284.085L85.3054 268.747L82.2877 265.729Z" fill="#11F8A5" fill-opacity="0.99"/>
<path d="M29.4946 318.521L14.1563 333.859L17.1739 336.876L32.5122 321.538L29.4946 318.521Z" fill="#11F8A5" fill-opacity="0.99"/>
<path d="M70.4319 318.536L67.4143 321.553L82.7525 336.891L85.7702 333.874L70.4319 318.536Z" fill="#11F8A5" fill-opacity="0.99"/>
<path d="M17.1701 265.267L14.1526 268.285L29.4835 283.616L32.5011 280.598L17.1701 265.267Z" fill="#11F8A5" fill-opacity="0.99"/>
<path d="M62.0511 302.408C63.0503 301.409 63.0503 299.795 62.0511 298.807L59.9277 296.694C58.9285 295.694 57.3152 295.694 56.3264 296.694L55.1814 297.839L53.8595 296.517C52.8603 295.517 51.2469 295.517 50.2581 296.517L49.1132 297.672L47.7913 296.34C46.792 295.34 45.1787 295.34 44.1899 296.34L37.164 303.365C37.112 303.418 37.112 303.501 37.164 303.563C38.1008 304.5 39.6309 304.5 40.5781 303.563L45.1058 299.036C45.595 298.546 46.3861 298.546 46.8753 299.036L47.2084 299.369C47.2708 299.431 47.2708 299.525 47.2084 299.587L43.4301 303.365C43.378 303.418 43.378 303.501 43.4301 303.563C44.3668 304.5 45.8969 304.5 46.8441 303.563L51.1845 299.223C51.6737 298.734 52.4648 298.734 52.954 299.223L53.2871 299.556C53.3391 299.608 53.3391 299.691 53.2871 299.754L49.644 303.397C49.592 303.449 49.592 303.532 49.644 303.595C50.5808 304.531 52.1109 304.531 53.058 303.595L57.2527 299.4C57.742 298.911 58.533 298.911 59.0222 299.4L59.7404 300.118C60.0214 300.399 60.0214 300.867 59.7404 301.148L59.6259 301.263C59.3449 301.544 58.8765 301.544 58.5954 301.263L57.6691 300.337C57.617 300.285 57.5337 300.285 57.4713 300.337L55.8684 301.94C55.8163 301.992 55.8163 302.075 55.8684 302.137L57.3152 303.584C58.3144 304.583 59.9277 304.583 60.9165 303.584L62.0615 302.439L62.0511 302.408Z" fill="#11F8A5" fill-opacity="0.99"/>
<path d="M49.9681 263.084C28.9843 263.084 11.9766 280.092 11.9766 301.076C11.9766 322.059 28.9843 339.067 49.9681 339.067C70.9519 339.067 87.9596 322.059 87.9596 301.076C87.9596 280.092 70.9519 263.084 49.9681 263.084ZM51.519 274.815C57.6184 275.168 63.1558 277.604 67.4442 281.414L61.9588 286.899C59.0964 284.474 55.4846 282.902 51.519 282.569V274.815ZM48.4276 274.815V282.569C44.4619 282.892 40.8501 284.474 37.9877 286.899L32.5024 281.414C36.7907 277.604 42.3281 275.168 48.4276 274.815ZM30.3166 283.599L35.8019 289.085C33.3767 291.947 31.805 295.559 31.4719 299.525H23.7175C24.0714 293.425 26.507 287.888 30.3166 283.599ZM23.7175 302.616H31.4719C31.7946 306.582 33.3767 310.194 35.8019 313.056L30.3166 318.541C26.507 314.253 24.0714 308.716 23.7175 302.616ZM48.4276 327.326C42.3281 326.972 36.7907 324.537 32.5024 320.727L37.9877 315.242C40.8501 317.667 44.4619 319.239 48.4276 319.572V327.326ZM34.0012 301.065C34.0012 292.249 41.152 285.098 49.9681 285.098C58.7842 285.098 65.9349 292.249 65.9349 301.065C65.9349 309.881 58.7842 317.032 49.9681 317.032C41.152 317.032 34.0012 309.881 34.0012 301.065ZM51.519 327.326V319.572C55.4846 319.249 59.0964 317.667 61.9588 315.242L67.4442 320.727C63.1558 324.537 57.6184 326.972 51.519 327.326ZM69.6299 318.541L64.1446 313.056C66.5698 310.194 68.1415 306.582 68.4746 302.616H76.229C75.8752 308.716 73.4395 314.253 69.6299 318.541ZM68.4746 299.525C68.1519 295.559 66.5698 291.947 64.1446 289.085L69.6299 283.599C73.4395 287.888 75.8752 293.425 76.229 299.525H68.4746Z" fill="#11F8A5" fill-opacity="0.99"/>
<g opacity="0.4">
<path d="M15.7882 206.26C-3.70156 186.77 -3.70156 155.061 15.7882 135.572C35.2779 116.082 66.9866 116.082 86.4763 135.572C105.966 155.061 105.966 186.77 86.4763 206.26C66.9866 225.749 35.2779 225.749 15.7882 206.26ZM84.1207 137.927C65.9296 119.736 36.3348 119.736 18.1485 137.927C-0.0425098 156.118 -0.0425098 185.713 18.1485 203.899C36.3396 222.09 65.9344 222.09 84.1207 203.899C102.312 185.708 102.312 156.114 84.1207 137.927Z" fill="white"/>
<path d="M84.6639 160.313C84.4885 160.138 84.3464 159.915 84.2658 159.668C82.5358 154.55 79.7109 150.014 75.8717 146.174C72.0373 142.34 67.4966 139.515 62.3777 137.78C61.7 137.548 61.2449 136.918 61.2449 136.202V124.054C61.2449 123.542 61.4819 123.059 61.8848 122.741C62.2924 122.424 62.8185 122.315 63.3114 122.438C72.061 124.628 80.0711 129.168 86.4697 135.572C92.8683 141.975 97.409 149.98 99.5988 158.73C99.722 159.228 99.6082 159.754 99.2954 160.161C98.9779 160.569 98.4944 160.801 97.9825 160.801H85.8346C85.3796 160.801 84.9625 160.616 84.6544 160.308L84.6639 160.313ZM78.2273 143.819C82.1423 147.734 85.0952 152.322 87.0195 157.469H95.807C93.5983 150.113 89.5837 143.392 84.1188 137.927C78.6539 132.462 71.933 128.448 64.5817 126.244V135.031C69.729 136.951 74.3171 139.904 78.2321 143.824L78.2273 143.819Z" fill="white"/>
<path d="M15.7868 206.26C9.38819 199.861 4.84279 191.851 2.65304 183.102C2.52981 182.604 2.64357 182.078 2.95639 181.675C3.27395 181.267 3.75738 181.035 4.26927 181.035H16.4172C17.1329 181.035 17.768 181.49 17.9955 182.168C19.7255 187.287 22.5504 191.823 26.3895 195.662C30.224 199.496 34.7647 202.321 39.8836 204.056C40.5613 204.283 41.0163 204.918 41.0163 205.634V217.782C41.0163 218.294 40.7793 218.777 40.3765 219.095C39.9688 219.413 39.4427 219.521 38.945 219.398C30.1955 217.209 22.1902 212.668 15.7868 206.269V206.26ZM6.45431 184.362C8.66301 191.718 12.6775 198.439 18.1424 203.904C23.6073 209.369 30.3283 213.384 37.6843 215.592V206.805C32.537 204.885 27.9489 201.932 24.0339 198.017C20.1189 194.102 17.1661 189.514 15.2417 184.367H6.45431V184.362Z" fill="white"/>
<path d="M61.7331 218.953C61.4203 218.64 61.2449 218.218 61.2449 217.773V205.625C61.2449 204.909 61.7 204.274 62.3777 204.046C67.4966 202.316 72.0325 199.492 75.8717 195.652C79.7109 191.813 82.531 187.277 84.2657 182.158C84.4932 181.481 85.1284 181.026 85.8441 181.026H97.992C98.5039 181.026 98.9873 181.263 99.3049 181.665C99.6225 182.068 99.7315 182.599 99.6082 183.092C97.4138 191.842 92.8731 199.847 86.4744 206.25C80.0758 212.654 72.0657 217.194 63.3162 219.384C62.8185 219.507 62.2924 219.394 61.8895 219.081C61.8374 219.033 61.7853 218.991 61.7379 218.943L61.7331 218.953ZM64.577 206.8V215.588C71.933 213.379 78.6539 209.364 84.1188 203.899C89.5837 198.435 93.5935 191.714 95.807 184.358H87.0195C85.0999 189.505 82.1471 194.088 78.2273 198.008C74.3123 201.923 69.7243 204.881 64.577 206.8Z" fill="white"/>
<path d="M3.08983 160.313C3.04243 160.266 2.99505 160.214 2.95713 160.161C2.63957 159.759 2.53055 159.228 2.65379 158.73C4.84354 149.981 9.3842 141.97 15.7876 135.572C22.1909 129.173 30.1963 124.628 38.9458 122.438C39.4435 122.315 39.9696 122.429 40.3724 122.741C40.7753 123.059 41.0124 123.542 41.0124 124.054V136.202C41.0124 136.918 40.5573 137.553 39.8796 137.78C34.7607 139.51 30.2247 142.335 26.3855 146.175C22.5511 150.009 19.7262 154.55 17.9915 159.668C17.764 160.346 17.1289 160.801 16.4132 160.801H4.2653C3.81977 160.801 3.39317 160.626 3.08509 160.318L3.08983 160.313ZM37.6803 126.244C30.3243 128.453 23.6033 132.467 18.1384 137.932C12.6735 143.397 8.66375 150.118 6.45031 157.474H15.2377C17.1573 152.327 20.1102 147.743 24.0299 143.824C27.9449 139.909 32.533 136.956 37.6803 135.031V126.244Z" fill="white"/>
<path d="M78.2314 143.819C63.2918 128.879 38.9771 128.874 24.0375 143.819C9.09316 158.763 9.0979 183.073 24.0375 198.013C38.9771 212.952 63.2871 212.957 78.2314 198.013C93.1757 183.068 93.171 158.758 78.2314 143.819Z" fill="white"/>
<path d="M64.9504 184.593L37.4227 184.776C36.2631 184.783 35.3293 185.73 35.337 186.889L35.3435 187.87C35.3512 189.03 36.2975 189.964 37.4571 189.956L64.9848 189.774C66.1444 189.766 67.0782 188.82 67.0705 187.66L67.064 186.679C67.0563 185.519 66.11 184.586 64.9504 184.593Z" fill="#191D0A"/>
<path d="M41.1732 167.977C40.8746 167.977 40.5713 167.911 40.2964 167.778L38.1493 166.74C37.2155 166.285 36.7889 165.181 37.1776 164.218L38.1635 161.763C38.4668 161.014 39.1825 160.526 39.9883 160.521C40.3343 160.521 40.6755 160.607 40.9789 160.782L43.5383 162.242C44.017 162.512 44.363 162.981 44.4863 163.522C44.6095 164.062 44.5005 164.631 44.1877 165.086L42.7847 167.119C42.4198 167.65 41.8131 167.972 41.1685 167.972L41.1732 167.977Z" fill="#191D0A"/>
<path d="M60.992 167.844C60.3474 167.844 59.736 167.536 59.3663 167.01L57.9775 165.053C57.6552 164.602 57.5415 164.034 57.6552 163.493C57.769 162.953 58.1102 162.479 58.5889 162.199L61.2289 160.649C61.5275 160.474 61.8688 160.379 62.2148 160.375C63.0206 160.37 63.7458 160.849 64.0586 161.593L65.0539 163.977C65.4521 164.934 65.0397 166.048 64.1155 166.513L61.8689 167.636C61.5987 167.769 61.2953 167.844 60.9967 167.844H60.992Z" fill="#191D0A"/>
<path d="M39.0106 182.936C37.802 182.945 36.7166 182.187 36.3043 181.049L31.7115 168.408C31.4176 168.55 31.1048 168.66 30.7872 168.74C30.4128 168.835 30.0336 168.882 29.6497 168.882C29.4269 168.882 29.2089 168.873 28.9956 168.844C26.602 168.541 24.7868 166.489 24.7726 164.071C24.7536 161.398 26.9149 159.209 29.5881 159.19C32.2613 159.171 34.451 161.332 34.4653 164.005C34.4653 164.621 34.361 165.214 34.1429 165.768C34.0244 166.072 33.8775 166.361 33.7069 166.636L42.4422 170.863L49.1252 161.18C48.8456 161.062 48.5754 160.915 48.3194 160.739C47.836 160.412 47.4142 160.005 47.0729 159.526C46.4946 158.711 46.1818 157.749 46.1771 156.753C46.1581 154.08 48.3195 151.89 50.9927 151.871C51.1111 151.871 51.2344 151.871 51.3529 151.881C53.7464 152.042 55.6802 153.962 55.8556 156.355C55.9362 157.488 55.6376 158.573 54.993 159.498C54.6517 159.981 54.2346 160.393 53.7559 160.72C53.5047 160.896 53.2345 161.043 52.9549 161.161L59.7564 170.745L68.3495 166.446C68.1883 166.138 68.0604 165.816 67.9656 165.479C67.8519 165.072 67.7902 164.645 67.7902 164.214C67.7902 164.019 67.7997 163.825 67.8187 163.635C68.0936 161.199 70.1506 159.351 72.601 159.336C75.2742 159.318 77.464 161.479 77.4782 164.152C77.4972 166.702 75.516 168.844 72.9707 169.02L72.6674 169.029C72.1744 169.029 71.691 168.963 71.2218 168.821C70.9185 168.726 70.6246 168.607 70.3496 168.456L66.0365 180.85C65.6431 181.992 64.5624 182.76 63.3538 182.77L39.0106 182.931V182.936Z" fill="#191D0A"/>
<path d="M101.21 50.0401V169.635C101.21 170.624 100.408 171.415 99.4298 171.415C98.4514 171.415 97.65 170.614 97.65 169.635V50.0401C97.65 49.0513 98.4514 48.2602 99.4298 48.2602C100.408 48.2602 101.21 49.0617 101.21 50.0401Z" fill="white"/>
<path d="M101 52C100.5 53 99.9784 52.5 99 52.5C98.0216 52.5 97.65 50.6985 97.65 49.7201C97.65 24.3647 77.0902 3.73478 51.7348 3.73478C26.3793 3.73478 4.57065 24.3092 4.57065 49.6646C4.57065 51.8568 4.54906 51.6646 3.57065 51.6646C2.59223 51.6646 0.999998 50.9784 0.999998 50C0.999998 22.6773 24.7225 0.164623 52.0452 0.164623C78.7885 0.164623 100.319 23.6487 101.21 50.2658C100.99 53.5 101 51.4206 101 52Z" fill="white"/>
<path d="M4.55974 49.7799V169.375C4.55974 170.364 3.75831 171.155 2.7799 171.155C1.80149 171.155 1 170.354 1 169.375V49.7799C1 48.791 1.80149 48 2.7799 48C3.75831 48 4.55974 48.8015 4.55974 49.7799Z" fill="white"/>
</g>
</svg>
